# xmcd CD database file
#
# Track frame offsets:
#	200
#	15740
#	29837
#	44790
#	64182
#	79317
#	91055
#	105262
#	120645
#	136800
#	153177
#	167647
#
# Disc length: 2414 seconds
#
# Revision: 0
# Processed by: cddbd v1.4PL0 Copyright (c) Steve Scherf et al.
# Submitted via: CDex 1.50beta9
#
DISCID=96096c0c
DTITLE=shan cuddy - the calling home
DYEAR=1900
DGENRE=Country
TTITLE0=The Calling Home
TTITLE1=The Old Rugged Cross
TTITLE2=Digging'em Dillon
TTITLE3=Dom't Close Your Eyes
TTITLE4=One Nigt of Love
TTITLE5=Standing In The Window
TTITLE6=The Village Where I Weat To School
TTITLE7=Forever Blue
TTITLE8=Daddy
TTITLE9=Tar and Cement
TTITLE10=Broken Heart
TTITLE11=You'll Never Go Back
EXTD=
EXTT0=
EXTT1=
EXTT2=
EXTT3=
EXTT4=
EXTT5=
EXTT6=
EXTT7=
EXTT8=
EXTT9=
EXTT10=
EXTT11=
PLAYORDER=
